# xmcd CD database file
#
# Track frame offsets:
#	150
#	24461
#	46643
#	68575
#	93525
#	117054
#	140171
#	159813
#	182761
#	208721
#	229267
#	251330
#	273800
#
# Disc length: 3950 seconds
#
# Revision: 0
# Processed by: cddbd v1.5PL3 Copyright (c) Steve Scherf et al.
# Submitted via: CDex 1.51
#
DISCID=a50f6c0d
DTITLE=Salsa - Los Amantes Vol 2
DYEAR=1999
DGENRE=Salsa
TTITLE0=Amor Primaveral - Chaney
TTITLE1=Llorando Tu Ausencia - Los Niches
TTITLE2=Que Tiene El - Danny Rivera
TTITLE3=Por Si Acaso - Manolo Lescano
TTITLE4=Mi Verdadero Amor - Alex Leon
TTITLE5=Mujer Sensual - Lefty Perez
TTITLE6=Los Amantes - Nestor Sanchez
TTITLE7=Aferrate A Mi - Tony Rivas
TTITLE8=Que Ganas Tengo - Chaney
TTITLE9=Una Aventura Mas - Orlando Pabellon
TTITLE10=Amor Amor - Manolo Lescano
TTITLE11=Tu Precio - Costa Brava
TTITLE12=Nadie Tuvo Tanto Tuyo Como Yo - Juan Carlos Coronel
EXTD=YEAR: 1999
EXTT0=
EXTT1=
EXTT2=
EXTT3=
EXTT4=
EXTT5=
EXTT6=
EXTT7=
EXTT8=
EXTT9=
EXTT10=
EXTT11=
EXTT12=
PLAYORDER=
